<svg width="507" height="256" viewBox="0 0 507 256" fill="none" xmlns="http://www.w3.org/2000/svg">
<path d="M0.590076 150.61V150.19H17.7501V150.61C17.4101 151.2 17.2401 152.3 17.2401 153.91C17.2401 154.59 17.3201 155.94 17.4101 157.88C17.5801 159.82 18.0901 162.11 19.1001 164.9L36.7701 211.91L52.3301 167.61C53.5101 164.48 54.1101 161.1 54.1101 157.55C54.1101 154 53.8601 151.72 53.2601 150.7V150.28H64.2501V150.53C61.4601 155.35 58.9201 160.93 56.7201 167.27L38.1201 220.03H28.6501L7.68008 164.65C5.57008 159.75 3.28008 155.01 0.580078 150.61H0.590076Z" fill="#0F253C"/>
<path d="M66.8805 178.01C71.1105 173.44 76.6005 171.25 83.2805 171.25C89.9605 171.25 94.9505 173.45 98.5805 177.84C102.301 182.15 104.081 187.73 104.081 194.5H71.2705C71.5205 200.42 73.0505 205.07 75.8405 208.62C78.6305 212.17 82.5205 213.95 87.5905 213.95C93.0905 213.95 98.4105 211.58 103.571 206.85L103.821 207.1C102.131 211.07 99.5105 214.29 95.8705 216.91C92.2305 219.53 88.0105 220.8 83.2705 220.8C76.8405 220.8 71.4305 218.6 66.9505 214.12C62.4705 209.55 60.2705 203.55 60.2705 195.86C60.3505 188.5 62.5505 182.5 66.8605 178.02L66.8805 178.01ZM71.3605 191.96L93.7705 190.27C93.6005 185.54 92.6705 181.73 90.9005 178.94C89.1205 176.07 86.5905 174.54 83.2105 174.54C79.4905 174.54 76.6205 176.23 74.5905 179.53C72.5605 182.83 71.5505 186.89 71.3805 191.96H71.3605Z" fill="#0F253C"/>
<path d="M112.96 205.99V185.87C112.96 182.66 112.28 178.01 110.93 172.09V171.84H123.02V180.13C127.25 174.21 132.49 171.34 138.75 171.34C143.23 171.34 146.95 172.69 150 175.4C153.04 178.11 154.57 182.25 154.57 187.83V206.18C154.57 209.05 155.25 213.71 156.68 219.96V220.21H142.39V219.96C143.83 213.7 144.5 209.14 144.5 206.18V189.1C144.5 185.38 143.57 182.67 141.63 180.73C139.77 178.87 137.4 177.94 134.53 177.94H134.36C130.56 177.94 126.75 179.72 123.03 183.18V206.18C123.03 209.39 123.71 214.04 125.06 219.96V220.21H110.86V219.96C112.3 213.87 112.97 209.31 112.97 206.01L112.96 205.99Z" fill="#0F253C"/>
<path d="M160.23 172.6C164.2 171.33 167.5 169.47 169.95 166.94C172.4 164.41 174.52 161.28 176.38 157.55H177.31V171.84H190.75V175.56H177.31L177.39 206C177.39 211.41 179.76 214.12 184.41 214.12C187.28 214.12 190.16 213.19 193.03 211.33C191.76 214.2 189.9 216.49 187.37 218.35C185 220.13 182.21 220.97 179 220.97C175.28 220.97 172.32 219.7 170.29 217.25C168.26 214.8 167.25 211.5 167.25 207.27V175.56H160.15V172.6H160.23Z" fill="#0F253C"/>
<path d="M197 171.75H209.09V203.12C209.09 206.84 210.02 209.55 211.88 211.49C213.74 213.27 216.11 214.2 219.07 214.2C222.79 214.2 226.6 212.51 230.48 209.13C230.31 207.69 230.31 206.68 230.31 206.09V185.8C230.31 182.59 229.63 177.94 228.28 172.02V171.77H240.37V206.01C240.37 209.22 241.05 213.87 242.4 219.79V220.04H232.25C231.83 218.77 231.32 215.98 230.73 211.67C226.25 217.76 221.01 220.8 214.92 220.8C210.44 220.8 206.72 219.45 203.67 216.74C200.63 213.95 199.1 209.81 199.1 204.23V185.88C199.1 183.01 198.42 178.35 196.99 172.1V171.76L197 171.75Z" fill="#0F253C"/>
<path d="M249.68 172.09V171.84H261.77V180.13C263.8 176.58 266.08 174.13 268.79 172.86C271.5 171.59 273.95 170.92 276.15 170.92C277.84 170.92 279.62 171.17 281.39 171.77L279.87 183.02H279.45C277.84 181.58 276.24 180.57 274.72 179.98C273.2 179.39 271.68 179.13 270.32 179.13C269.56 179.13 268.38 179.3 266.85 179.55C265.33 179.8 263.72 180.82 261.78 182.68V206.19C261.78 209.4 262.46 214.05 263.81 219.97V220.22H249.61V219.97C250.96 214.05 251.64 209.4 251.64 206.19V185.9C251.72 182.69 251.05 178.04 249.7 172.12L249.68 172.09Z" fill="#0F253C"/>
<path d="M290.77 178.01C295 173.44 300.49 171.25 307.17 171.25C313.85 171.25 318.84 173.45 322.47 177.84C326.19 182.15 327.97 187.73 327.97 194.5H295.16C295.41 200.42 296.94 205.07 299.73 208.62C302.52 212.17 306.41 213.95 311.48 213.95C316.98 213.95 322.3 211.58 327.46 206.85L327.71 207.1C326.02 211.07 323.4 214.29 319.76 216.91C316.12 219.53 311.9 220.8 307.16 220.8C300.73 220.8 295.32 218.6 290.84 214.12C286.36 209.55 284.16 203.55 284.16 195.86C284.24 188.5 286.44 182.5 290.75 178.02L290.77 178.01ZM295.25 191.96L317.66 190.27C317.49 185.54 316.56 181.73 314.79 178.94C313.01 176.07 310.48 174.54 307.1 174.54C303.38 174.54 300.51 176.23 298.48 179.53C296.45 182.83 295.35 186.89 295.27 191.96H295.25Z" fill="#0F253C"/>
<path d="M339.9 174.88C343.37 172.43 347.76 171.16 353.09 171.16C358.42 171.16 364.08 172.51 369.75 175.13V185.78H369.33C363.16 178.34 357.41 174.62 352.25 174.62C349.8 174.62 347.68 175.21 345.91 176.48C344.13 177.66 343.29 179.35 343.29 181.55C343.29 183.75 344.22 185.44 346.08 186.62C347.94 187.72 351.15 188.99 355.55 190.51C355.72 190.51 355.8 190.51 355.8 190.59C355.97 190.59 356.05 190.59 356.22 190.67C361.55 192.45 365.35 194.56 367.63 196.84C370 199.21 371.18 202.17 371.18 205.89C371.18 210.71 369.49 214.43 366.02 217.05C362.55 219.59 358.33 220.85 353.34 220.85C347.93 220.85 341.84 219.33 335.16 216.28V204.95H335.41C337.52 207.32 339.38 209.35 340.91 210.87C342.44 212.39 344.46 213.83 346.83 215.27C349.28 216.62 351.65 217.3 353.93 217.3C356.38 217.3 358.5 216.62 360.27 215.36C362.05 214.01 362.98 212.15 362.98 209.7C362.98 207.25 362.05 205.56 360.19 204.29C358.33 203.02 355.03 201.5 350.38 199.89C345.05 198.11 340.99 196.09 338.37 193.89C335.75 191.69 334.48 188.82 334.48 185.18C334.73 180.87 336.51 177.4 339.89 174.86L339.9 174.88Z" fill="#0F253C"/>
<path d="M102.14 81.03C108.31 74.35 116.18 71.05 125.48 71.05C131.82 71.05 139.18 72.57 147.63 75.7V89.48H147.04C144.42 85.42 141.29 81.95 137.74 79.08C134.19 76.21 130.38 74.85 126.33 74.85C120.16 74.85 115 77.98 110.94 84.15C106.88 90.32 104.85 97.93 104.85 106.98C104.85 116.03 106.96 123.64 111.28 129.89C115.51 136.06 120.67 139.19 126.5 139.19C130.14 139.19 133.77 137.84 137.49 135.05C141.21 132.18 144.42 128.71 147.21 124.57H147.8V138.44C139.43 141.57 131.9 143.09 125.39 143.09C116.26 143.09 108.56 139.71 102.31 133.03C96.0497 126.27 92.9197 117.64 92.9197 107.16C92.7497 96.42 95.8797 87.8 102.14 81.03Z" fill="#0F253C"/>
<path d="M155.83 71.73V71.31L168.26 69.62V101.41C172.74 95.75 177.98 92.87 183.99 92.87C188.47 92.87 192.19 94.22 195.24 96.93C198.28 99.64 199.81 103.78 199.81 109.36V127.71C199.81 130.58 200.49 135.24 201.92 141.49V141.74H187.63V141.49C189.07 135.23 189.74 130.58 189.74 127.71V110.63C189.74 106.91 188.81 104.2 186.87 102.26C184.93 100.4 182.47 99.47 179.51 99.47C175.79 99.47 171.98 101.08 168.26 104.29V127.71C168.26 130.58 168.94 135.24 170.37 141.49V141.74H156.17V141.49C157.61 135.23 158.28 130.58 158.28 127.71V85.01C158.28 80.28 157.43 75.79 155.83 71.74V71.73Z" fill="#0F253C"/>
<path d="M208.59 93.54H220.68V124.91C220.68 128.63 221.61 131.34 223.47 133.28C225.33 135.06 227.7 135.99 230.66 135.99C234.38 135.99 238.19 134.3 242.07 130.92C241.9 129.48 241.9 128.47 241.9 127.88V107.59C241.9 104.38 241.22 99.73 239.87 93.81V93.56H251.96V127.8C251.96 131.01 252.64 135.66 253.99 141.58V141.83H243.84C243.42 140.56 242.91 137.77 242.32 133.46C237.84 139.55 232.6 142.59 226.51 142.59C222.03 142.59 218.31 141.24 215.26 138.53C212.22 135.74 210.69 131.6 210.69 126.02V107.59C210.69 104.72 210.01 100.06 208.58 93.81V93.56L208.59 93.54Z" fill="#0F253C"/>
<path d="M261.94 93.8V93.55H273.95V127.79C273.95 129.14 274.03 130.58 274.2 132.19C274.37 133.71 274.62 135.06 274.79 136.08C274.96 137.09 275.21 138.28 275.47 139.46C275.73 140.64 275.89 141.32 275.98 141.57V141.82H261.94V141.57C263.29 135.65 263.97 131 263.97 127.79L264.05 107.58C264.13 104.71 263.37 100.14 261.94 93.8ZM261.6 76.38C261.6 74.44 262.28 72.83 263.63 71.56C264.98 70.21 266.67 69.53 268.62 69.53C270.57 69.53 272.17 70.21 273.61 71.56C274.96 72.83 275.64 74.43 275.64 76.38C275.64 78.33 274.96 79.85 273.61 81.11C272.17 82.46 270.57 83.14 268.62 83.14C266.67 83.14 265.07 82.46 263.63 81.2C262.28 79.85 261.6 78.24 261.6 76.38Z" fill="#0F253C"/>
<path d="M328.35 57.8C328.34 57.9 328.33 58.01 328.34 58.12C328.34 58.05 328.34 57.97 328.34 57.9C328.34 57.87 328.34 57.83 328.35 57.8Z" fill="url(#paint0_linear_202_3864)"/>
<path d="M328.68 58.94C328.68 58.94 328.66 58.92 328.65 58.91C328.64 58.91 328.63 58.89 328.63 58.88C328.65 58.9 328.67 58.92 328.68 58.95V58.94Z" fill="url(#paint1_linear_202_3864)"/>
<path d="M331.32 59.01L331.21 59.7L329.74 59.49C330.01 59.52 330.3 59.48 330.57 59.36L331.32 59.02V59.01Z" fill="url(#paint2_linear_202_3864)"/>
<path d="M394.76 170.15L394.75 170.16L387.76 149.98L394.76 170.15Z" fill="url(#paint3_linear_202_3864)"/>
<path d="M398.97 217.42V217.43L391.59 198.36L398.97 217.42Z" fill="url(#paint4_linear_202_3864)"/>
<path d="M407.21 238.69L400.25 220.74L400.26 220.73L407.21 238.69Z" fill="url(#paint5_linear_202_3864)"/>
<path d="M454.25 208.88L444.49 237.96L444.48 237.97L449 223.42L449.02 223.35L454.23 208.87L454.25 208.88Z" fill="url(#paint6_linear_202_3864)"/>
<path d="M471.16 67.42C471.16 67.37 471.16 67.31 471.15 67.25C471.15 67.26 471.15 67.27 471.15 67.28C471.15 67.33 471.15 67.37 471.15 67.42H471.16Z" fill="url(#paint7_linear_202_3864)"/>
<path d="M367.52 61.53C367.18 61.72 366.79 61.77 366.41 61.7L367.06 61.86L367.62 61.47L367.52 61.52V61.53ZM394.44 46.78C394.44 46.78 394.45 46.78 394.47 46.78C394.47 46.78 394.45 46.78 394.44 46.78ZM395.19 45.21C395.19 45.23 395.2 45.26 395.2 45.29C395.2 45.27 395.2 45.24 395.2 45.22L395.19 45.21ZM415.63 52.61L414.94 53.04C415.18 52.89 415.45 52.81 415.75 52.8C415.98 52.8 416.2 52.84 416.41 52.92L415.64 52.62L415.63 52.61Z" fill="url(#paint8_linear_202_3864)"/>
<path d="M506.52 107.96C506.2 107.64 505.75 107.48 505.29 107.5L483.78 108.68L471.11 67.08V67.06C471.11 67.06 471.1 67.03 471.09 67.02C471.09 67.02 471.09 67.01 471.09 67C471.09 66.96 471.07 66.93 471.05 66.89C471.04 66.85 471.01 66.8 470.99 66.77C470.98 66.75 470.97 66.73 470.95 66.7C470.95 66.68 470.92 66.65 470.9 66.63C470.9 66.62 470.89 66.61 470.87 66.6C470.87 66.59 470.87 66.58 470.86 66.58C470.85 66.5601 470.83 66.54 470.82 66.53C470.82 66.52 470.82 66.51 470.81 66.51C470.78 66.48 470.76 66.45 470.73 66.42C470.7 66.39 470.67 66.36 470.64 66.33C470.64 66.33 470.64 66.32 470.62 66.31C470.59 66.28 470.55 66.26 470.51 66.22C470.51 66.22 470.5 66.22 470.48 66.21C470.48 66.2 470.46 66.19 470.45 66.19C470.45 66.19 470.45 66.19 470.44 66.18C470.44 66.18 470.42 66.17 470.41 66.17L435.52 43.52L437.93 41.48C438.33 41.14 438.51 40.64 438.42 40.14C438.33 39.65 437.97 39.23 437.48 39.04L422.27 33.08L423.31 27.12C423.31 27.12 423.32 27.05 423.33 27.01C423.34 26.97 423.34 26.94 423.34 26.91C423.34 26.83 423.34 26.75 423.34 26.66C423.34 26.66 423.34 26.56 423.32 26.51C423.32 26.49 423.32 26.46 423.3 26.42C423.28 26.33 423.25 26.26 423.22 26.18C423.2 26.13 423.18 26.09 423.15 26.05C423.13 26.01 423.11 25.98 423.09 25.95L408.06 0.980044C407.84 0.610044 407.46 0.350045 407.02 0.260045C406.58 0.170045 406.12 0.270045 405.76 0.530045L390.69 11.25C390.69 11.25 390.62 11.3 390.59 11.34C390.45 11.46 390.33 11.59 390.25 11.76C390.22 11.81 390.2 11.86 390.18 11.92C390.16 11.97 390.15 12.01 390.13 12.05C390.13 12.08 390.12 12.12 390.11 12.14C390.1 12.18 390.1 12.21 390.09 12.26L386.77 28.45L371.46 27.28L351.82 14.25C351.12 13.78 350.14 13.93 349.64 14.6L343.66 22.48C343.47 22.74 343.36 23.06 343.37 23.38L344.04 40.83L328.73 57.03C328.73 57.03 328.73 57.03 328.72 57.04C328.7 57.06 328.68 57.08 328.66 57.11C328.65 57.13 328.63 57.15 328.61 57.17C328.61 57.18 328.6 57.19 328.59 57.21C328.55 57.26 328.53 57.31 328.49 57.37C328.49 57.37 328.49 57.38 328.49 57.39C328.46 57.45 328.43 57.52 328.41 57.58C328.4 57.6 328.4 57.63 328.39 57.65C328.37 57.69 328.36 57.74 328.36 57.78C328.35 57.88 328.34 57.99 328.35 58.1C328.35 58.03 328.35 57.95 328.35 57.88L326.13 71.49L303.81 97.25C303.81 97.25 303.78 97.29 303.77 97.3C303.72 97.3501 303.69 97.41 303.65 97.46C303.65 97.48 303.64 97.48 303.63 97.5C303.59 97.56 303.57 97.63 303.54 97.71C303.54 97.71 303.54 97.72 303.54 97.73L300.63 105.21C300.4 105.8 300.6 106.47 301.13 106.86L311.24 114.4C311.24 114.4 311.26 114.42 311.27 114.42L321.59 122.11L325.19 133.5C325.39 134.14 326.02 134.56 326.73 134.55L342.59 134.19C342.8 134.19 343.01 134.14 343.21 134.05L367.56 123.46L376.8 131.57C377.11 131.85 377.54 131.99 377.97 131.97L383.43 131.65L383.96 148.23C383.96 148.3 383.96 148.36 383.97 148.43C383.97 148.44 383.97 148.45 383.97 148.46C383.97 148.48 383.97 148.5 383.98 148.53C383.99 148.58 384.01 148.64 384.03 148.68L384.06 148.78L392.55 173.29L388.44 198.28C388.39 198.52 388.42 198.77 388.51 199L396.97 220.82C396.97 220.82 396.97 220.86 396.98 220.87L397.03 221V221.03L397.06 221.05V221.07L404.42 240.08C404.52 240.34 404.7 240.57 404.93 240.74L424.62 255.01C424.62 255.01 424.65 255.02 424.65 255.03C424.68 255.05 424.7 255.07 424.73 255.08C424.76 255.1 424.79 255.11 424.81 255.13C424.81 255.13 424.83 255.14 424.84 255.15C424.85 255.16 424.87 255.16 424.87 255.17C424.92 255.19 424.97 255.21 425.01 255.22C425.03 255.23 425.06 255.24 425.08 255.24C425.14 255.26 425.21 255.28 425.27 255.29C425.28 255.29 425.29 255.29 425.3 255.29C425.31 255.29 425.32 255.3 425.33 255.29C425.33 255.29 425.337 255.29 425.35 255.29H425.36C425.42 255.3 425.49 255.3 425.55 255.3C425.72 255.3 425.89 255.28 426.06 255.23C426.1 255.22 426.14 255.2 426.18 255.18L426.3 255.13C426.37 255.09 426.43 255.06 426.49 255.01C426.49 255.01 426.55 254.97 426.57 254.95L446.77 239.96C446.88 239.87 446.98 239.78 447.07 239.67C447.09 239.65 447.1 239.62 447.12 239.59C447.12 239.59 447.12 239.59 447.12 239.58C447.15 239.54 447.18 239.49 447.2 239.45C447.24 239.38 447.26 239.32 447.28 239.26L447.3 239.21L451.95 224.26L457.3 209.39H457.31L474.89 198.23C475.31 197.96 475.57 197.51 475.58 197.04L476.23 156.38L488.41 144.44C488.41 144.44 488.42 144.44 488.42 144.43L504.11 129.03C504.34 128.81 504.5 128.51 504.53 128.19L506.88 109.14C506.93 108.71 506.78 108.29 506.46 107.97L506.52 107.96ZM471.15 67.28C471.15 67.28 471.15 67.37 471.15 67.42C471.15 67.37 471.15 67.31 471.14 67.25C471.14 67.26 471.14 67.27 471.14 67.28H471.15ZM480.07 107.16L466.58 99.97L470.15 74.62L480.07 107.16ZM463.87 96.81L449.91 78L467.66 69.92L463.87 96.81ZM414.53 151.15C414.51 151.06 414.48 150.99 414.45 150.91C414.29 150.54 413.98 150.25 413.59 150.1L414.34 150.34L408.07 122.78L431.8 135.54L450.01 161.71L414.34 150.34L414.53 151.15ZM425.19 180.59L396.83 172.4L412.61 154.22L425.19 180.59ZM354.32 70.69L367.06 61.85L366.41 61.69C366.79 61.76 367.18 61.71 367.52 61.52L367.62 61.47L367.06 61.86L390.44 67.74L367.6 94.65L354.31 70.7L354.32 70.69ZM367.39 95.84L367.12 95.87C366.75 95.9201 366.43 96.08 366.19 96.33L366.71 95.72L367.39 95.85V95.84ZM352.14 73.11L364.44 95.28L339.53 90.56L352.14 73.11ZM350.39 65.91L351.91 62.42L361.65 61.96L352.56 68.26L350.39 65.9V65.91ZM393.78 47.15L412.34 54.48L392.92 65.32L370.76 59.75L393.78 47.15ZM392.87 44.24L393.23 43.99L393.71 44.04C393.42 44.04 393.12 44.09 392.87 44.24ZM394.45 46.77C394.45 46.77 394.47 46.76 394.48 46.76C394.47 46.76 394.46 46.76 394.45 46.77ZM395.19 45.19C395.19 45.21 395.19 45.24 395.19 45.26C395.19 45.23 395.19 45.21 395.18 45.18L395.19 45.19ZM428.38 79.12L405.92 77.49L415.9 57.51L428.38 79.13V79.12ZM446.05 78.66L446.37 104.03L430.33 76.33L446.04 78.66H446.05ZM430.64 73.4L441.01 63.13L445.32 75.58L430.63 73.4H430.64ZM431.32 84.18L445.23 108.28L421.63 105.97L431.32 84.18ZM445.45 111.25L432.34 132.43L408.37 119.54L419.95 108.75L445.44 111.25H445.45ZM418.64 105.06L398.16 93.02L404.51 80.32L428.86 82.09L418.64 105.06ZM397.13 88.17L394.82 67.66L412.23 57.95L402.15 78.1C402.13 78.15 402.1 78.2 402.09 78.25L397.13 88.16V88.17ZM394.44 92.32L371 95.37L392.01 70.6L394.44 92.32ZM367.96 57.89L365.88 44.35L388.72 46.51L367.95 57.89H367.96ZM395.1 95.2L403.63 118.4H391.32L370.62 98.38L395.1 95.2ZM399.09 97.03L416.88 107.48L406.49 117.17L399.09 97.03ZM434.76 134.39L448 112.98L460.61 133.9L453.19 160.87L434.77 134.39H434.76ZM447.94 111.49H447.99C447.99 111.49 448 111.49 448.02 111.49C447.99 111.49 447.97 111.49 447.94 111.49ZM449.58 110.02C449.58 109.79 449.52 109.56 449.4 109.35L449.58 109.65L449.24 82.18L463.32 101.17L461.11 128.78L449.57 109.65V110.03L449.58 110.02ZM448.54 75.36L444.08 62.46L465.17 67.8L448.54 75.36ZM461.28 63.78L442.8 59.1L437.06 48.06L461.28 63.78ZM439.83 60.08L427.82 71.95L417.89 54.74L432.42 45.81L439.84 60.08H439.83ZM419.96 35.34L434.04 40.85L432.07 42.52H432.05L415.66 52.61L416.43 52.91C416.22 52.83 416.01 52.79 415.77 52.79C415.47 52.8 415.2 52.89 414.96 53.03L415.65 52.6L396.87 45.18L419.66 30L419 33.76C418.89 34.42 419.27 35.08 419.94 35.35L419.96 35.34ZM406.26 3.90005L417.92 23.27L394.6 12.18L406.25 3.90005H406.26ZM392.82 14.62L418.81 26.99L394.5 43.18L389.69 29.92L392.82 14.62ZM386.97 31.55L391.43 43.83L364.87 41.31L357.77 33.21L386.97 31.55ZM351.32 17.49L369.55 29.6L354.64 30.44H354.52C354.52 30.44 354.44 30.44 354.39 30.46C354.36 30.46 354.32 30.46 354.29 30.47C354.21 30.49 354.13 30.51 354.06 30.54C354.01 30.56 353.95 30.58 353.9 30.61C353.84 30.63 353.79 30.66 353.74 30.7C353.68 30.74 353.61 30.79 353.55 30.84C353.51 30.88 353.47 30.91 353.44 30.95L347.08 37.67L346.55 23.78L351.32 17.5V17.49ZM354.57 34.17L361.6 42.18L336.23 53.56L354.57 34.17ZM362.82 44.88L364.97 58.87L350.98 59.53H350.93L335.18 57.28L362.82 44.88ZM329.25 71.9L331.24 59.68L329.77 59.47C330.04 59.5 330.33 59.46 330.6 59.34L331.35 59L331.24 59.69L348.66 62.18L347.16 65.64C346.93 66.14 347.04 66.73 347.42 67.15L350.38 70.37L337.23 88.57L329.25 71.92V71.9ZM336.73 93H336.64C336.64 93 336.63 92.9901 336.63 92.98H336.64C336.64 92.98 336.7 93 336.73 93ZM327.26 74.88L334.9 90.85L315.06 99.7401L307.69 97.45L327.26 74.88ZM311.31 110.67L303.99 105.22L306.01 100.02L313.33 102.29L311.31 110.67ZM314.02 112.7L316.53 102.32L337.15 93.08L364.29 98.22L347 115.41L323.39 119.68L314.01 112.69L314.02 112.7ZM342.21 131.26L327.89 131.59L324.98 122.38L347.76 118.26L363.3 122.09L342.22 131.26H342.21ZM367.72 120.26H367.75L368.01 120.24L350.75 115.98L367.39 99.45L366.58 98.67L366.26 98.37C366.45 98.55 366.7 98.68 366.97 98.75L367.06 98.77C367.06 98.77 367.13 98.77 367.16 98.78C367.23 98.79 367.3 98.79 367.37 98.79C367.44 98.79 367.51 98.79 367.58 98.78C367.63 98.78 367.66 98.7701 367.72 98.76L368.14 98.71L367.39 99.45L387.27 118.68L368.02 120.25L368.18 120.29C368.03 120.27 367.88 120.26 367.72 120.28V120.26ZM384.55 128.64L378.48 129L371.52 122.9L390.76 121.33H399.49L384.56 128.64H384.55ZM386.57 130.96L404.75 122.06L411.05 149.74L387.07 146.93L386.57 130.97V130.96ZM387.79 149.96L410.03 152.57L394.78 170.13L387.79 149.96ZM399 217.41L391.62 198.34L395.45 175.06L425.48 183.73L399 217.4V217.41ZM424.15 250.93L407.24 238.68L400.28 220.73L426.32 187.61L424.14 250.93H424.15ZM415.92 153.92L450.54 164.96L428.66 180.65L415.91 153.92H415.92ZM444.52 237.94H444.51L427.29 250.73L429.51 186.3L454.27 208.86H454.29L444.53 237.95L444.52 237.94ZM456.24 206.56L430.45 183.06L452.88 166.97L462.38 202.66L456.24 206.56ZM472.55 196.22L465.14 200.91L455.66 165.29L473.16 158.04L472.54 196.22H472.55ZM473.85 154.55L456.15 161.89L463.36 135.69L484.69 143.91L473.85 154.55ZM463.94 132.74L466.3 103.16L481.2 111.1L485.49 141.04L463.94 132.74ZM501.57 127.34L488.52 140.15L484.43 111.56L503.65 110.51L501.58 127.35L501.57 127.34Z" fill="url(#paint9_linear_202_3864)"/>
<path d="M393.23 44.01L392.87 44.26C393.12 44.11 393.42 44.05 393.71 44.06L393.23 44.01ZM394.44 46.78C394.44 46.78 394.45 46.78 394.47 46.78C394.47 46.78 394.45 46.78 394.44 46.78ZM395.19 45.21C395.19 45.23 395.2 45.26 395.2 45.29C395.2 45.27 395.2 45.24 395.2 45.22L395.19 45.21Z" fill="url(#paint10_linear_202_3864)"/>
<path d="M366.18 96.34C366.13 96.4 366.08 96.46 366.03 96.53C366.05 96.5 366.08 96.46 366.11 96.43L366.18 96.35V96.34Z" fill="url(#paint11_linear_202_3864)"/>
<path d="M366.7 95.73L366.18 96.34C366.42 96.1 366.74 95.93 367.11 95.88L367.38 95.85L366.7 95.72V95.73Z" fill="url(#paint12_linear_202_3864)"/>
<path d="M367.52 61.53C367.18 61.72 366.79 61.77 366.41 61.7L367.06 61.86L367.62 61.47L367.52 61.52V61.53Z" fill="url(#paint13_linear_202_3864)"/>
<path d="M367.68 98.77C367.63 98.77 367.59 98.78 367.54 98.79C367.48 98.8 367.4 98.8 367.33 98.8C367.26 98.8 367.19 98.8 367.12 98.79C367.09 98.79 367.06 98.78 367.02 98.78L366.93 98.76C366.66 98.69 366.42 98.56 366.22 98.38L366.54 98.68L367.35 99.4601L368.1 98.72L367.68 98.77ZM366.7 95.73L366.18 96.34C366.42 96.1 366.74 95.93 367.11 95.88L367.38 95.85L366.7 95.72V95.73ZM336.6 93.01H336.69C336.69 93.01 336.63 93.01 336.6 93.01Z" fill="url(#paint14_linear_202_3864)"/>
<path d="M367.68 98.77C367.63 98.77 367.59 98.78 367.54 98.79C367.48 98.8 367.4 98.8 367.33 98.8C367.26 98.8 367.19 98.8 367.12 98.79C367.09 98.79 367.06 98.78 367.02 98.78L366.93 98.76C366.66 98.69 366.42 98.56 366.22 98.38L366.54 98.68L367.35 99.4601L368.1 98.72L367.68 98.77Z" fill="url(#paint15_linear_202_3864)"/>
<path d="M336.61 93H336.7C336.7 93 336.64 93 336.61 93ZM366.71 95.72L366.19 96.33C366.43 96.09 366.75 95.9201 367.12 95.87L367.39 95.84L366.71 95.71L366.71 95.72ZM366.23 98.37L366.55 98.67L366.94 98.74C366.67 98.67 366.43 98.54 366.23 98.36V98.37Z" fill="url(#paint16_linear_202_3864)"/>
<path d="M328.35 57.8C328.34 57.9 328.33 58.01 328.34 58.12C328.34 58.05 328.34 57.97 328.34 57.9C328.34 57.87 328.34 57.83 328.35 57.8Z" fill="url(#paint17_linear_202_3864)"/>
<path d="M328.68 58.94C328.68 58.94 328.66 58.92 328.65 58.91C328.64 58.91 328.63 58.89 328.63 58.88C328.65 58.9 328.67 58.92 328.68 58.95V58.94Z" fill="url(#paint18_linear_202_3864)"/>
<path d="M393.23 44.01L392.87 44.26C393.12 44.11 393.42 44.05 393.71 44.06L393.23 44.01ZM394.44 46.78C394.44 46.78 394.45 46.78 394.47 46.78C394.47 46.78 394.45 46.78 394.44 46.78Z" fill="url(#paint19_linear_202_3864)"/>
<path d="M414.34 150.34L413.59 150.1C413.98 150.25 414.29 150.54 414.45 150.91C414.48 150.99 414.51 151.07 414.53 151.15L414.34 150.34Z" fill="url(#paint20_linear_202_3864)"/>
<path d="M396.97 220.83L388.51 199.01L396.98 220.89C396.98 220.89 396.98 220.85 396.97 220.84V220.83Z" fill="url(#paint21_linear_202_3864)"/>
<path d="M414.34 150.34L413.59 150.1C413.98 150.25 414.29 150.54 414.45 150.91C414.48 150.99 414.51 151.07 414.53 151.15L414.34 150.34Z" fill="url(#paint22_linear_202_3864)"/>
<path d="M457.35 209.4L452 224.27L447.35 239.22L457.35 209.4Z" fill="url(#paint23_linear_202_3864)"/>
<path d="M427.25 250.75L429.46 186.32L427.24 250.75H427.25ZM426.21 255.21C426.21 255.21 426.24 255.21 426.25 255.2C426.28 255.19 426.3 255.18 426.33 255.16L426.21 255.21Z" fill="url(#paint24_linear_202_3864)"/>
<path d="M447.97 111.5H447.92C447.92 111.5 447.97 111.5 448 111.5C448 111.5 447.99 111.5 447.97 111.5ZM449.55 109.65L449.37 109.35C449.49 109.56 449.55 109.79 449.55 110.02V109.64V109.65Z" fill="url(#paint25_linear_202_3864)"/>
<path d="M471.15 67.28C471.15 67.28 471.15 67.26 471.15 67.25C471.15 67.31 471.16 67.37 471.16 67.42C471.16 67.37 471.16 67.33 471.16 67.28H471.15Z" fill="url(#paint26_linear_202_3864)"/>
<path d="M331.32 59.01L331.21 59.7L329.74 59.49C330.01 59.52 330.3 59.48 330.57 59.36L331.32 59.02V59.01Z" fill="url(#paint27_linear_202_3864)"/>
<path d="M393.71 44.06C393.42 44.06 393.12 44.11 392.87 44.26L393.23 44.01L393.71 44.06Z" fill="url(#paint28_linear_202_3864)"/>
<path d="M395.2 45.28C395.2 45.28 395.2 45.23 395.19 45.2C395.19 45.2 395.19 45.25 395.19 45.27L395.2 45.28Z" fill="url(#paint29_linear_202_3864)"/>
<path d="M368.14 120.29C367.99 120.27 367.84 120.26 367.68 120.28C367.69 120.28 367.71 120.28 367.71 120.28L367.97 120.26L368.13 120.3L368.14 120.29Z" fill="url(#paint30_linear_202_3864)"/>
<path d="M368.14 120.29C367.99 120.27 367.84 120.26 367.68 120.28C367.69 120.28 367.71 120.28 367.71 120.28L367.97 120.26L368.13 120.3L368.14 120.29Z" fill="url(#paint31_linear_202_3864)"/>
<path d="M416.4 52.92C416.19 52.84 415.98 52.8 415.74 52.8C415.44 52.81 415.17 52.9 414.93 53.04L415.62 52.61L416.39 52.91L416.4 52.92Z" fill="url(#paint32_linear_202_3864)"/>
<path d="M448 111.51C448 111.51 447.95 111.51 447.92 111.51H447.97C447.97 111.51 447.98 111.51 448 111.51Z" fill="url(#paint33_linear_202_3864)"/>
<path d="M449.56 110.03C449.56 109.8 449.5 109.57 449.38 109.36L449.56 109.66V110.04V110.03Z" fill="url(#paint34_linear_202_3864)"/>
<defs>
<linearGradient id="paint0_linear_202_3864" x1="301.939" y1="130.73" x2="506.889" y2="130.73" gradientUnits="userSpaceOnUse">
<stop stop-color="#E71E00"/>
<stop offset="1" stop-color="#E28A00"/>
</linearGradient>
<linearGradient id="paint1_linear_202_3864" x1="301.939" y1="130.73" x2="506.889" y2="130.73" gradientUnits="userSpaceOnUse">
<stop stop-color="#E71E00"/>
<stop offset="1" stop-color="#E28A00"/>
</linearGradient>
<linearGradient id="paint2_linear_202_3864" x1="301.939" y1="130.73" x2="506.889" y2="130.73" gradientUnits="userSpaceOnUse">
<stop stop-color="#E71E00"/>
<stop offset="1" stop-color="#E28A00"/>
</linearGradient>
<linearGradient id="paint3_linear_202_3864" x1="301.939" y1="130.73" x2="506.889" y2="130.73" gradientUnits="userSpaceOnUse">
<stop stop-color="#E71E00"/>
<stop offset="1" stop-color="#E28A00"/>
</linearGradient>
<linearGradient id="paint4_linear_202_3864" x1="301.939" y1="130.73" x2="506.889" y2="130.73" gradientUnits="userSpaceOnUse">
<stop stop-color="#E71E00"/>
<stop offset="1" stop-color="#E28A00"/>
</linearGradient>
<linearGradient id="paint5_linear_202_3864" x1="301.939" y1="130.73" x2="506.889" y2="130.73" gradientUnits="userSpaceOnUse">
<stop stop-color="#E71E00"/>
<stop offset="1" stop-color="#E28A00"/>
</linearGradient>
<linearGradient id="paint6_linear_202_3864" x1="301.939" y1="130.73" x2="506.889" y2="130.73" gradientUnits="userSpaceOnUse">
<stop stop-color="#E71E00"/>
<stop offset="1" stop-color="#E28A00"/>
</linearGradient>
<linearGradient id="paint7_linear_202_3864" x1="301.939" y1="130.73" x2="506.889" y2="130.73" gradientUnits="userSpaceOnUse">
<stop stop-color="#E71E00"/>
<stop offset="1" stop-color="#E28A00"/>
</linearGradient>
<linearGradient id="paint8_linear_202_3864" x1="301.939" y1="130.73" x2="506.889" y2="130.73" gradientUnits="userSpaceOnUse">
<stop stop-color="#E71E00"/>
<stop offset="1" stop-color="#E28A00"/>
</linearGradient>
<linearGradient id="paint9_linear_202_3864" x1="301.939" y1="130.73" x2="506.889" y2="130.73" gradientUnits="userSpaceOnUse">
<stop stop-color="#E71E00"/>
<stop offset="1" stop-color="#E28A00"/>
</linearGradient>
<linearGradient id="paint10_linear_202_3864" x1="301.939" y1="130.73" x2="506.889" y2="130.73" gradientUnits="userSpaceOnUse">
<stop stop-color="#E71E00"/>
<stop offset="1" stop-color="#E28A00"/>
</linearGradient>
<linearGradient id="paint11_linear_202_3864" x1="301.939" y1="130.73" x2="506.889" y2="130.73" gradientUnits="userSpaceOnUse">
<stop stop-color="#E71E00"/>
<stop offset="1" stop-color="#E28A00"/>
</linearGradient>
<linearGradient id="paint12_linear_202_3864" x1="301.939" y1="130.73" x2="506.889" y2="130.73" gradientUnits="userSpaceOnUse">
<stop stop-color="#E71E00"/>
<stop offset="1" stop-color="#E28A00"/>
</linearGradient>
<linearGradient id="paint13_linear_202_3864" x1="301.939" y1="130.73" x2="506.889" y2="130.73" gradientUnits="userSpaceOnUse">
<stop stop-color="#E71E00"/>
<stop offset="1" stop-color="#E28A00"/>
</linearGradient>
<linearGradient id="paint14_linear_202_3864" x1="301.939" y1="130.73" x2="506.889" y2="130.73" gradientUnits="userSpaceOnUse">
<stop stop-color="#E71E00"/>
<stop offset="1" stop-color="#E28A00"/>
</linearGradient>
<linearGradient id="paint15_linear_202_3864" x1="301.939" y1="130.73" x2="506.889" y2="130.73" gradientUnits="userSpaceOnUse">
<stop stop-color="#E71E00"/>
<stop offset="1" stop-color="#E28A00"/>
</linearGradient>
<linearGradient id="paint16_linear_202_3864" x1="301.939" y1="130.73" x2="506.889" y2="130.73" gradientUnits="userSpaceOnUse">
<stop stop-color="#E71E00"/>
<stop offset="1" stop-color="#E28A00"/>
</linearGradient>
<linearGradient id="paint17_linear_202_3864" x1="301.939" y1="130.73" x2="506.889" y2="130.73" gradientUnits="userSpaceOnUse">
<stop stop-color="#E71E00"/>
<stop offset="1" stop-color="#E28A00"/>
</linearGradient>
<linearGradient id="paint18_linear_202_3864" x1="301.939" y1="130.73" x2="506.889" y2="130.73" gradientUnits="userSpaceOnUse">
<stop stop-color="#E71E00"/>
<stop offset="1" stop-color="#E28A00"/>
</linearGradient>
<linearGradient id="paint19_linear_202_3864" x1="301.939" y1="130.73" x2="506.889" y2="130.73" gradientUnits="userSpaceOnUse">
<stop stop-color="#E71E00"/>
<stop offset="1" stop-color="#E28A00"/>
</linearGradient>
<linearGradient id="paint20_linear_202_3864" x1="301.939" y1="130.73" x2="506.889" y2="130.73" gradientUnits="userSpaceOnUse">
<stop stop-color="#E71E00"/>
<stop offset="1" stop-color="#E28A00"/>
</linearGradient>
<linearGradient id="paint21_linear_202_3864" x1="301.939" y1="130.73" x2="506.889" y2="130.73" gradientUnits="userSpaceOnUse">
<stop stop-color="#E71E00"/>
<stop offset="1" stop-color="#E28A00"/>
</linearGradient>
<linearGradient id="paint22_linear_202_3864" x1="301.939" y1="130.73" x2="506.889" y2="130.73" gradientUnits="userSpaceOnUse">
<stop stop-color="#E71E00"/>
<stop offset="1" stop-color="#E28A00"/>
</linearGradient>
<linearGradient id="paint23_linear_202_3864" x1="301.939" y1="130.73" x2="506.889" y2="130.73" gradientUnits="userSpaceOnUse">
<stop stop-color="#E71E00"/>
<stop offset="1" stop-color="#E28A00"/>
</linearGradient>
<linearGradient id="paint24_linear_202_3864" x1="301.939" y1="130.73" x2="506.889" y2="130.73" gradientUnits="userSpaceOnUse">
<stop stop-color="#E71E00"/>
<stop offset="1" stop-color="#E28A00"/>
</linearGradient>
<linearGradient id="paint25_linear_202_3864" x1="301.939" y1="130.73" x2="506.889" y2="130.73" gradientUnits="userSpaceOnUse">
<stop stop-color="#E71E00"/>
<stop offset="1" stop-color="#E28A00"/>
</linearGradient>
<linearGradient id="paint26_linear_202_3864" x1="301.939" y1="130.73" x2="506.889" y2="130.73" gradientUnits="userSpaceOnUse">
<stop stop-color="#E71E00"/>
<stop offset="1" stop-color="#E28A00"/>
</linearGradient>
<linearGradient id="paint27_linear_202_3864" x1="301.939" y1="130.73" x2="506.889" y2="130.73" gradientUnits="userSpaceOnUse">
<stop stop-color="#E71E00"/>
<stop offset="1" stop-color="#E28A00"/>
</linearGradient>
<linearGradient id="paint28_linear_202_3864" x1="301.939" y1="130.73" x2="506.889" y2="130.73" gradientUnits="userSpaceOnUse">
<stop stop-color="#E71E00"/>
<stop offset="1" stop-color="#E28A00"/>
</linearGradient>
<linearGradient id="paint29_linear_202_3864" x1="301.939" y1="130.73" x2="506.889" y2="130.73" gradientUnits="userSpaceOnUse">
<stop stop-color="#E71E00"/>
<stop offset="1" stop-color="#E28A00"/>
</linearGradient>
<linearGradient id="paint30_linear_202_3864" x1="301.939" y1="130.73" x2="506.889" y2="130.73" gradientUnits="userSpaceOnUse">
<stop stop-color="#E71E00"/>
<stop offset="1" stop-color="#E28A00"/>
</linearGradient>
<linearGradient id="paint31_linear_202_3864" x1="301.939" y1="130.73" x2="506.889" y2="130.73" gradientUnits="userSpaceOnUse">
<stop stop-color="#E71E00"/>
<stop offset="1" stop-color="#E28A00"/>
</linearGradient>
<linearGradient id="paint32_linear_202_3864" x1="301.939" y1="130.73" x2="506.889" y2="130.73" gradientUnits="userSpaceOnUse">
<stop stop-color="#E71E00"/>
<stop offset="1" stop-color="#E28A00"/>
</linearGradient>
<linearGradient id="paint33_linear_202_3864" x1="301.939" y1="130.73" x2="506.889" y2="130.73" gradientUnits="userSpaceOnUse">
<stop stop-color="#E71E00"/>
<stop offset="1" stop-color="#E28A00"/>
</linearGradient>
<linearGradient id="paint34_linear_202_3864" x1="301.939" y1="130.73" x2="506.889" y2="130.73" gradientUnits="userSpaceOnUse">
<stop stop-color="#E71E00"/>
<stop offset="1" stop-color="#E28A00"/>
</linearGradient>
</defs>
</svg>
